<svg xmlns="http://www.w3.org/2000/svg" xmlns:xlink="http://www.w3.org/1999/xlink" width="199" height="38" viewBox="0 0 199 38">
    <defs>
        <path id="t4zg8cvmqa" d="M0.115 0.401L37.902 0.401 37.902 37.968 0.115 37.968z"/>
    </defs>
    <g fill="none" fill-rule="evenodd">
        <path fill="#FFF" d="M41.537 27.2l-1.25 2.338h-4.715l4.998-28.21h5.722l-1.773 9.832c1.129-1.128 3.184-2.498 6.166-2.498 4.755 0 8.422 3.627 8.422 8.785 0 6.046-4.634 12.654-11.848 12.654-3.264 0-5.118-1.732-5.722-2.901m11.726-8.987c0-2.62-1.692-4.393-4.19-4.393-3.789 0-6.086 3.587-6.086 6.811 0 2.58 1.653 4.312 4.11 4.312 3.708 0 6.166-3.586 6.166-6.73M66.525 1.328L72.248 1.328 67.25 29.537 61.527 29.537 66.525 1.328M78.576 21.155c0 .12-.04.242-.04.362.04 2.096 1.611 3.91 4.311 3.91 2.62 0 4.232-1.612 4.836-2.66l4.513 1.41c-1.893 3.386-4.916 5.924-9.953 5.924-4.997 0-8.906-3.384-8.906-8.704 0-6.448 5.118-12.735 12.17-12.735 5.158 0 8.221 3.305 8.221 8.222 0 .765-.04 1.531-.201 2.337l-.323 1.934H78.576zm10.316-4.191c.04-1.41-.806-3.748-3.909-3.748-2.982 0-4.916 1.895-5.682 4.03h9.591v-.282zM99.735 9.227h4.675l.322 2.136c1.33-1.331 3.346-2.7 6.246-2.7 4.03 0 6.287 1.974 6.287 6.286 0 .927-.12 1.934-.281 3.022l-2.056 11.566h-5.722l1.975-11.162c.08-.565.12-1.049.12-1.492 0-2.136-1.128-2.901-2.861-2.901-2.297 0-4.11 1.49-4.635 4.634l-1.973 10.921h-5.724l3.627-20.31"/>
        <g transform="translate(120.861)">
            <mask id="mn0jor2k5b" fill="#fff">
                <use xlink:href="#t4zg8cvmqa"/>
            </mask>
            <path fill="#FFF" d="M.115 21.195c0-5.844 4.593-12.533 11.767-12.533 2.981 0 4.836 1.49 5.561 2.7l1.813-10.034h5.722l-4.996 28.21h-4.715l-.363-2.258c-1.048 1.129-3.103 2.821-6.367 2.821-4.796 0-8.422-3.666-8.422-8.906m16.039-3.063c0-2.619-1.653-4.312-4.111-4.312-3.345 0-6.166 3.144-6.166 6.73 0 2.62 1.733 4.393 4.19 4.393 3.75 0 6.087-3.586 6.087-6.81M20.574 36.146l2.982-4.11c.282.322.685.645 1.572.645 1.128 0 1.813-.726 2.015-1.975l3.787-21.48h5.723l-3.909 22.407C31.938 35.824 28.714 38 25.49 38c-3.103 0-4.433-1.29-4.916-1.854m11-32.4C31.575 1.932 33.188.4 34.962.4c1.692 0 2.941 1.37 2.941 2.982s-1.53 3.304-3.344 3.304c-1.733 0-2.983-1.289-2.983-2.941" mask="url(#mn0jor2k5b)"/>
        </g>
        <path fill="#FFF" d="M165.334 21.155c0 .12-.04.242-.04.362.04 2.096 1.611 3.91 4.312 3.91 2.619 0 4.23-1.612 4.836-2.66l4.513 1.41c-1.894 3.386-4.917 5.924-9.954 5.924-4.998 0-8.906-3.384-8.906-8.704 0-6.448 5.117-12.735 12.17-12.735 5.158 0 8.221 3.305 8.221 8.222 0 .765-.04 1.531-.201 2.337l-.323 1.934h-14.628zm10.316-4.191c.04-1.41-.806-3.748-3.908-3.748-2.983 0-4.917 1.895-5.683 4.03h9.591v-.282z"/>
        <g fill="#FFF">
            <path d="M185.366 24.335c0-.444.04-.846.12-1.33l1.652-9.31h-3.385l.887-4.996h3.385l.927-5.28h5.723l-.927 5.28h4.795l-.887 4.997h-4.795l-1.531 8.664c-.04.16-.04.403-.04.564 0 .847.443 1.33 1.369 1.33.847 0 1.45-.363 1.854-.685l1.693 4.231c-.806.725-2.58 1.773-5.602 1.773-3.305 0-5.238-2.135-5.238-5.238M26.976 11.53C25.799 6.515 22.122 1.915 17.048.504c-3.576-.995-7.386-.26-10.7 1.262C5.333 2.23 4.342 2.767 3.424 3.4c4.77-1.93 10.507-1.181 14.497 2.111 3.801 3.136 5.433 8.28 3.695 12.966-1.006 2.714-2.977 5.074-5.685 6.202-2.59 1.08-5.618.95-7.991-.598-2.027-1.322-3.422-3.628-3.561-6.07-.152-2.668 1.356-5.23 3.982-6.018 2.43-.728 6.379.263 5.544 3.576-.708 2.808-4.728 2.817-5.457.017-.943 1.287-.604 3.114.48 4.193 1.105 1.1 2.717 1.566 4.233 1.25 2.462-.513 4.296-2.679 4.71-5.113.521-3.061-1.238-5.907-3.973-7.22-2.685-1.29-5.752-.905-8.271.558-5.754 3.342-7.393 11.14-3.527 16.537 3.611 5.04 10.767 5.981 16.192 3.544 6.678-3 10.34-10.72 8.683-17.805" transform="translate(0 .528)"/>
        </g>
    </g>
</svg>
