<svg width="106px" height="40px" viewBox="0 0 684.1 257.42" xmlns="http://www.w3.org/2000/svg">

 <g>
  <title>Layer 1</title>
  <path id="svg_1" fill="#015a75" d="m681.89,223.62l0,-189.82a31.16,31.16 0 0 0 -31.16,-31.16l-415.73,0l0,252.14l415.73,0a31.16,31.16 0 0 0 31.16,-31.16" class="cls-1"/>
  <path id="svg_2" fill="#015a75" d="m650.73,257.42l-418.36,0l0,-257.42l418.36,0a33.84,33.84 0 0 1 33.8,33.8l0,189.82a33.84,33.84 0 0 1 -33.8,33.8m-413.08,-5.28l413.08,0a28.55,28.55 0 0 0 28.52,-28.52l0,-189.82a28.55,28.55 0 0 0 -28.52,-28.52l-413.08,0l0,246.86z" class="cls-1"/>
  <path id="svg_3" fill="#015a75" fill-rule="evenodd" d="m102.95,85.09l-10.87,15c-5.45,7.51 -3.76,20.81 3.68,26.18l20.16,14.55c3.46,2.5 3.73,5 2.09,7.61l2.93,2.18l10.21,-14.14c6.31,-8.74 5.76,-20.63 -3.6,-27.44l-20.34,-14.82c-2.43,-1.78 -2.69,-4.25 -1.34,-7l-2.93,-2.09m17.45,-66.23l-16.93,23.41c-7.94,10.98 -5.05,29.7 5.8,37.7l27.83,20.43c5.64,4.14 6.38,14.69 2.27,20.09l2.36,1.77l19.2,-27c8.62,-12.13 8.12,-30.05 -5.42,-39.88l-29.77,-21.63c-4.17,-3 -6.25,-8.17 -2.78,-13.08l-2.56,-1.81m-44.61,146.83l22.43,0l4,13.6l36.66,0l4,-13.6l22.44,0l-2.94,-10l-83.65,0l-2.94,10m10.51,45.5c3.94,-2.31 6.36,-5.7 6.36,-10.35c0,-9.29 -7.61,-13.08 -15.92,-13.08l-23.2,0l0,49.33l23,0c9.82,0 20.22,-4.29 18.54,-15.59c-1,-6.47 -3.56,-8 -8.77,-10.32m-22.3,-13.98l12.08,0c7.53,0 7.8,10.52 0.47,10.52l-12.55,0l0,-10.52zm13.47,30.57l-13.47,0l0,-11.25l13.47,0c9.89,0 9.28,11.25 0,11.25zm54.88,-16.58c3.94,-2.31 6.36,-5.7 6.36,-10.35c0,-9.29 -7.61,-13.08 -15.92,-13.08l-23.2,0l0,49.33l23,0c9.81,0 20.22,-4.29 18.54,-15.59c-1,-6.47 -3.56,-8 -8.77,-10.32m-22.26,-14l12.05,0c7.53,0 7.8,10.52 0.47,10.52l-12.53,0l0.01,-10.52zm13.44,30.58l-13.45,0l0,-11.24l13.44,0c9.88,0 9.28,11.25 0,11.25l0.01,-0.01zm63.64,-6.25c-1,-6.47 -3.56,-8 -8.77,-10.32c3.94,-2.31 6.36,-5.7 6.36,-10.35c0,-9.29 -7.61,-13.08 -15.92,-13.08l-23.2,0l0,49.33l23,0c9.81,0 20.22,-4.29 18.54,-15.59m-31,-24.31l12.01,0c7.53,0 7.8,10.52 0.47,10.52l-12.52,0l0.04,-10.52zm13.44,30.58l-13.48,0l0,-11.25l13.44,0c9.88,0 9.28,11.25 0,11.25l0.04,0z"/>
  <path id="svg_4" fill="#fff" d="m300.48,118.38l-2.25,-6.21l-15.73,0l-2.31,6.21l-8.91,0l14.19,-36.68l9.79,0l14.13,36.68l-8.91,0zm-10.11,-28.88l-5.72,15.78l11.44,0l-5.72,-15.78zm21.06,10.56c0,-11.27 8.52,-19 19.52,-19a16.79,16.79 0 0 1 15.34,9l-6.71,3.3a9.94,9.94 0 0 0 -8.58,-5.36c-6.65,0 -11.49,5.11 -11.49,12s4.84,12 11.49,12a9.83,9.83 0 0 0 8.63,-5.33l6.67,3.33c-2.64,4.56 -7.26,9 -15.34,9c-10.96,0 -19.53,-7.66 -19.53,-18.94zm38.17,0c0,-11.27 8.52,-19 19.52,-19a16.79,16.79 0 0 1 15.34,9l-6.71,3.3a9.94,9.94 0 0 0 -8.63,-5.36c-6.65,0 -11.49,5.11 -11.49,12s4.84,12 11.49,12a9.83,9.83 0 0 0 8.63,-5.33l6.71,3.24c-2.64,4.56 -7.26,9 -15.34,9c-10.99,0.09 -19.52,-7.57 -19.52,-18.85zm60.66,18.32l-7.2,-13l-5.72,0l0,13l-7.81,0l0,-36.68l17.16,0c7.64,0 12.32,5 12.32,11.82c0,6.49 -4.07,10 -8,10.89l8.25,14l-9,-0.03zm0.74,-24.86c0,-3.08 -2.36,-4.95 -5.5,-4.95l-8.19,0l0,9.9l8.19,0c3.17,0 5.5,-1.87 5.5,-4.95zm14.28,24.86l0,-36.68l26,0l0,6.87l-18.19,0l0,7.75l17.76,0l0,6.87l-17.76,0l0,8.3l18.15,0l0,6.87l-25.96,0.02zm32.45,0l0,-36.68l14.46,0c11.49,0 19.47,7.31 19.47,18.37s-8,18.31 -19.47,18.31l-14.46,0zm26,-18.31c0,-6.49 -4,-11.49 -11.49,-11.49l-6.65,0l0,22.92l6.65,0c7.21,0 11.45,-5.22 11.45,-11.44l0.04,0.01zm13.88,18.31l0,-36.68l7.81,0l0,36.68l-7.81,0zm23.92,0l0,-29.81l-10.73,0l0,-6.87l29.26,0l0,6.87l-10.67,0l0,29.81l-7.86,0zm23.92,0l0,-36.68l26,0l0,6.87l-18.19,0l0,7.75l17.74,0l0,6.87l-17.74,0l0,8.3l18.15,0l0,6.87l-25.96,0.02zm32.45,0l0,-36.68l14.46,0c11.49,0 19.47,7.31 19.47,18.37s-8,18.31 -19.47,18.31l-14.46,0zm26,-18.31c0,-6.49 -4,-11.49 -11.49,-11.49l-6.65,0l0,22.92l6.65,0c7.22,0 11.45,-5.22 11.45,-11.44l0.04,0.01zm-328.71,81.31l0,-36.68l19.3,0c7,0 10.56,4.45 10.56,9.35c0,4.62 -2.86,7.7 -6.32,8.41c3.9,0.6 7,4.4 7,9c0,5.5 -3.68,9.9 -10.67,9.9l-19.87,0.02zm21.89,-26a4,4 0 0 0 -4.29,-4l-9.79,0l0,8l9.79,0c2.63,0 4.28,-1.65 4.28,-3.96l0.01,-0.04zm0.71,15c0,-2.31 -1.65,-4.29 -4.73,-4.29l-10.06,0l0,8.52l10.06,0c2.94,0 4.73,-1.61 4.73,-4.23zm14.21,-3.63l0,-22.05l8,0l0,21.78c0,5.11 3,8.63 8.63,8.63s8.58,-3.52 8.58,-8.63l0,-21.78l8,0l0,22c0,9.13 -5.39,15.34 -16.55,15.34s-16.66,-6.27 -16.66,-15.29zm38.26,9.46l4.23,-5.94a16.08,16.08 0 0 0 11.66,4.95c4.29,0 6.38,-2 6.38,-4.07c0,-2.69 -3.41,-3.46 -7.42,-4.45c-6,-1.37 -13.69,-3 -13.69,-11.38c0,-6.1 5.28,-11.16 13.91,-11.16c5.83,0 10.67,1.76 14.3,5.11l-4.35,5.73a15.75,15.75 0 0 0 -10.67,-4c-3.35,0 -5.22,1.49 -5.22,3.68c0,2.37 3.35,3.13 7.31,4.07c6,1.43 13.75,3.25 13.75,11.55c0,6.71 -4.78,11.77 -14.68,11.77c-7.04,-0.07 -12.1,-2.4 -15.51,-5.86zm35.86,5.17l0,-36.68l7.81,0l0,36.68l-7.81,0zm40.75,0l-17.49,-23.92l0,23.92l-7.81,0l0,-36.68l8,0l17,23l0,-23l7.81,0l0,36.68l-7.51,0zm15.18,0l0,-36.68l26,0l0,6.87l-18.19,0l0,7.75l17.76,0l0,6.87l-17.76,0l0,8.3l18.14,0l0,6.87l-25.95,0.02zm29.95,-5.17l4.23,-5.94a16.08,16.08 0 0 0 11.66,4.95c4.29,0 6.38,-2 6.38,-4.07c0,-2.69 -3.41,-3.46 -7.42,-4.45c-6,-1.37 -13.69,-3 -13.69,-11.38c0,-6.1 5.28,-11.16 13.91,-11.16c5.83,0 10.67,1.76 14.3,5.11l-4.32,5.73a15.76,15.76 0 0 0 -10.67,-4c-3.35,0 -5.22,1.49 -5.22,3.68c0,2.37 3.36,3.13 7.31,4.07c6,1.43 13.75,3.25 13.75,11.55c0,6.71 -4.78,11.77 -14.68,11.77c-7.04,-0.07 -12.1,-2.4 -15.54,-5.86zm33.42,0l4.23,-5.94a16.08,16.08 0 0 0 11.66,4.95c4.29,0 6.38,-2 6.38,-4.07c0,-2.69 -3.41,-3.46 -7.42,-4.45c-6,-1.37 -13.69,-3 -13.69,-11.38c0,-6.1 5.28,-11.16 13.91,-11.16c5.83,0 10.67,1.76 14.3,5.11l-4.35,5.73a15.76,15.76 0 0 0 -10.67,-4c-3.35,0 -5.22,1.49 -5.22,3.68c0,2.37 3.36,3.13 7.31,4.07c6,1.43 13.75,3.25 13.75,11.55c0,6.71 -4.78,11.77 -14.68,11.77c-7.05,-0.07 -12.11,-2.4 -15.51,-5.86z"/>
  <path stroke="null" id="svg_5" fill="#015a75" d="m237.65,257.42l-203.85,0a33.84,33.84 0 0 1 -33.8,-33.8l0,-189.82a33.84,33.84 0 0 1 33.8,-33.8l203.85,0l0,257.42m-203.85,-252.14a28.55,28.55 0 0 0 -28.52,28.52l0,189.82a28.55,28.55 0 0 0 28.52,28.52l198.57,0l0,-246.86l-198.57,0z" class="cls-1"/>
 </g>
</svg>